ffmpeg started on 2016-12-06 at 02:45:38
Report written to "Output/x264/results/ffmpeg/Tsintelfast2500k.log"
Command line:
Tools/ffmpeg/ffmpeg -i Output/x264/encoded/sintelfast2500k.mkv -c:v rawvideo -pix_fmt yuv420p Output/x264/transcoded/sintelfast2500k.yuv
ffmpeg version N-82227-gdb23fde Copyright (c) 2000-2016 the FFmpeg developers
  built with gcc 5.4.0 (Ubuntu 5.4.0-6ubuntu1~16.04.2) 20160609
  configuration: --prefix=/home/jaroslav/ffmpeg_build --pkg-config-flags=--static --extra-cflags=-I/home/jaroslav/ffmpeg_build/include --extra-ldflags=-L/home/jaroslav/ffmpeg_build/lib --bindir=/home/jaroslav/bin --enable-gpl --enable-libass --enable-libfdk-aac --enable-libfreetype --enable-libmp3lame --enable-libopus --enable-libtheora --enable-libvorbis --enable-libvpx --enable-libx264 --enable-libx265 --enable-nvenc --enable-libmfx --enable-libxvid --enable-libgsm --enable-libopencore-amrnb --enable-version3 --enable-nonfree
  libavutil      55. 35.100 / 55. 35.100
  libavcodec     57. 66.101 / 57. 66.101
  libavformat    57. 57.100 / 57. 57.100
  libavdevice    57.  2.100 / 57.  2.100
  libavfilter     6. 66.100 /  6. 66.100
  libswscale      4.  3.100 /  4.  3.100
  libswresample   2.  4.100 /  2.  4.100
  libpostproc    54.  2.100 / 54.  2.100
Input #0, matroska,webm, from 'Output/x264/encoded/sintelfast2500k.mkv':
  Metadata:
    ENCODER         : Lavf57.57.100
  Duration: 00:00:20.83, start: 0.000000, bitrate: 2092 kb/s
    Stream #0:0: Video: h264 (High), yuv420p(progressive), 4096x1744 [SAR 1:1 DAR 256:109], 24 fps, 24 tbr, 1k tbn, 48 tbc (default)
    Metadata:
      ENCODER         : Lavc57.66.101 libx264
      DURATION        : 00:00:20.834000000
Output #0, rawvideo, to 'Output/x264/transcoded/sintelfast2500k.yuv':
  Metadata:
    encoder         : Lavf57.57.100
    Stream #0:0: Video: rawvideo (I420 / 0x30323449), yuv420p, 4096x1744 [SAR 1:1 DAR 256:109], q=2-31, 200 kb/s, 24 fps, 24 tbn, 24 tbc (default)
    Metadata:
      DURATION        : 00:00:20.834000000
      encoder         : Lavc57.66.101 rawvideo
Stream mapping:
  Stream #0:0 -> #0:0 (h264 (native) -> rawvideo (native))
Press [q] to stop, [?] for help
frame=   20 fps=0.0 q=-0.0 size=  209280kB time=00:00:00.83 bitrate=2057306.9kbits/s speed= 1.6x    frame=   41 fps= 39 q=-0.0 size=  429024kB time=00:00:01.70 bitrate=2057306.5kbits/s speed=1.64x    frame=   62 fps= 40 q=-0.0 size=  648768kB time=00:00:02.58 bitrate=2057306.4kbits/s speed=1.65x    frame=   83 fps= 40 q=-0.0 size=  868512kB time=00:00:03.45 bitrate=2057306.3kbits/s speed=1.66x    frame=  104 fps= 40 q=-0.0 size= 1088256kB time=00:00:04.33 bitrate=2057306.3kbits/s speed=1.67x    frame=  125 fps= 40 q=-0.0 size= 1308000kB time=00:00:05.20 bitrate=2057306.2kbits/s speed=1.67x    frame=  146 fps= 40 q=-0.0 size= 1527744kB time=00:00:06.08 bitrate=2057306.2kbits/s speed=1.67x    frame=  167 fps= 40 q=-0.0 size= 1747488kB time=00:00:06.95 bitrate=2057306.2kbits/s speed=1.67x    frame=  188 fps= 40 q=-0.0 size= 1967232kB time=00:00:07.83 bitrate=2057306.2kbits/s speed=1.68x    frame=  209 fps= 40 q=-0.0 size= 2186976kB time=00:00:08.70 bitrate=2057306.2kbits/s speed=1.67x    frame=  229 fps= 40 q=-0.0 size= 2396256kB time=00:00:09.54 bitrate=2057306.0kbits/s speed=1.67x    frame=  249 fps= 40 q=-0.0 size= 2605536kB time=00:00:10.37 bitrate=2057306.1kbits/s speed=1.67x    frame=  269 fps= 40 q=-0.0 size= 2814816kB time=00:00:11.20 bitrate=2057306.2kbits/s speed=1.67x    frame=  289 fps= 40 q=-0.0 size= 3024096kB time=00:00:12.04 bitrate=2057306.1kbits/s speed=1.67x    frame=  303 fps= 39 q=-0.0 size= 3170592kB time=00:00:12.62 bitrate=2057306.1kbits/s speed=1.64x    frame=  322 fps= 39 q=-0.0 size= 3369408kB time=00:00:13.41 bitrate=2057306.1kbits/s speed=1.63x    frame=  339 fps= 39 q=-0.0 size= 3547296kB time=00:00:14.12 bitrate=2057306.1kbits/s speed=1.61x    frame=  356 fps= 38 q=-0.0 size= 3725184kB time=00:00:14.83 bitrate=2057306.2kbits/s speed= 1.6x    frame=  373 fps= 38 q=-0.0 size= 3903072kB time=00:00:15.54 bitrate=2057306.1kbits/s speed=1.59x    frame=  385 fps= 37 q=-0.0 size= 4028640kB time=00:00:16.04 bitrate=2057306.1kbits/s speed=1.56x    frame=  401 fps= 37 q=-0.0 size= 4196064kB time=00:00:16.70 bitrate=2057306.2kbits/s speed=1.55x    frame=  407 fps= 35 q=-0.0 size= 4258848kB time=00:00:16.95 bitrate=2057306.2kbits/s speed=1.48x    frame=  423 fps= 35 q=-0.0 size= 4426272kB time=00:00:17.62 bitrate=2057306.1kbits/s speed=1.47x    frame=  438 fps= 35 q=-0.0 size= 4583232kB time=00:00:18.25 bitrate=2057306.1kbits/s speed=1.46x    frame=  449 fps= 34 q=-0.0 size= 4698336kB time=00:00:18.70 bitrate=2057306.1kbits/s speed=1.43x    frame=  466 fps= 34 q=-0.0 size= 4876224kB time=00:00:19.41 bitrate=2057306.1kbits/s speed=1.43x    frame=  483 fps= 34 q=-0.0 size= 5054112kB time=00:00:20.12 bitrate=2057306.1kbits/s speed=1.43x    frame=  500 fps= 34 q=-0.0 size= 5232000kB time=00:00:20.83 bitrate=2057306.1kbits/s speed=1.43x    frame=  500 fps= 34 q=-0.0 Lsize= 5232000kB time=00:00:20.83 bitrate=2057306.1kbits/s speed=1.42x    
video:5232000kB audio:0kB subtitle:0kB other streams:0kB global headers:0kB muxing overhead: 0.000000%
